<?xml version="1.0" encoding="iso-8859-1"?>
<!-- Generator: Adobe Illustrator 18.0.0, SVG Export Plug-In . SVG Version: 6.00 Build 0)  -->
<!DOCTYPE svg PUBLIC "-//W3C//DTD SVG 1.1//EN" "http://www.w3.org/Graphics/SVG/1.1/DTD/svg11.dtd">
<svg version="1.1" id="Capa_1" xmlns="http://www.w3.org/2000/svg" xmlns:xlink="http://www.w3.org/1999/xlink" x="0px" y="0px"
	 viewBox="0 0 57 57" style="enable-background:new 0 0 57 57;" xml:space="preserve">
<g>
	<path d="M54,28h-2.977c0.051-0.576,0.222-1.136,0.519-1.634l1.632-2.734c0.32-0.537,0.327-1.209,0.018-1.753
		C52.884,21.337,52.306,21,51.684,21H28.959C28.983,20.835,29,20.669,29,20.5c0-1.93-1.57-3.5-3.5-3.5S22,18.57,22,20.5
		c0,0.169,0.017,0.335,0.041,0.5H5.316c-0.622,0-1.2,0.337-1.508,0.879c-0.31,0.544-0.303,1.216,0.019,1.754l1.631,2.732
		C5.755,26.864,5.927,27.424,5.977,28H3c-1.654,0-3,1.346-3,3s1.346,3,3,3h3v6.799C6,44.218,8.769,47,12.172,47h1.496
		c0.335,0.53,0.779,1.107,1.315,1.797c0.259,0.333,0.542,0.698,0.846,1.1l0.603,0.798l0.798-0.603
		c1.58-1.194,2.553-2.086,2.889-3.092h6.252c0.05,0.064,0.094,0.122,0.145,0.188c0.401,0.519,0.842,1.084,1.313,1.709l0.603,0.798
		l0.798-0.603c1.018-0.769,1.866-1.451,2.54-2.092h5.648c0.335,0.53,0.779,1.107,1.314,1.797c0.259,0.333,0.542,0.697,0.846,1.1
		l0.603,0.798l0.798-0.603c1.581-1.194,2.554-2.086,2.89-3.092h0.961C48.231,47,51,44.218,51,40.799V34h3c1.654,0,3-1.346,3-3
		S55.654,28,54,28z M24,20.5c0-0.827,0.673-1.5,1.5-1.5s1.5,0.673,1.5,1.5c0,0.188-0.037,0.356-0.09,0.5h-2.82
		C24.037,20.856,24,20.688,24,20.5z M3,32c-0.552,0-1-0.448-1-1s0.448-1,1-1h3v2H3z M16.807,47.886
		c-0.084-0.108-0.165-0.213-0.244-0.315c-0.661-0.852-1.186-1.532-1.423-2.023c-0.021-0.043-0.041-0.085-0.059-0.127
		c-0.025-0.062-0.044-0.12-0.057-0.174c-0.021-0.098-0.013-0.206,0.027-0.328c0.017-0.05,0.035-0.1,0.066-0.154
		c0.024-0.045,0.052-0.093,0.087-0.143c0.061-0.087,0.134-0.177,0.219-0.272c0.022-0.025,0.037-0.046,0.061-0.072
		c0.125-0.132,0.267-0.27,0.423-0.41c0.155-0.139,0.332-0.291,0.539-0.459c0.084,0.108,0.165,0.213,0.244,0.314
		c0.415,0.536,0.787,1.015,1.063,1.422c0.001,0.001,0.002,0.003,0.003,0.004c0.134,0.197,0.243,0.376,0.326,0.537
		c0.005,0.009,0.009,0.019,0.014,0.028c0.076,0.152,0.124,0.285,0.143,0.401c0.008,0.053,0.015,0.105,0.009,0.151
		C18.194,46.667,17.545,47.285,16.807,47.886z M29.157,39.333c0.06,0.077,0.112,0.145,0.17,0.219
		c1.126,1.455,1.831,2.407,2.149,3.137c0.01,0.024,0.022,0.048,0.031,0.071c0.04,0.098,0.074,0.193,0.099,0.284
		c0.004,0.012,0.006,0.024,0.009,0.036c0.071,0.268,0.076,0.509,0.025,0.743c-0.012,0.046-0.02,0.092-0.037,0.139
		c-0.008,0.025-0.019,0.051-0.028,0.076c-0.126,0.305-0.359,0.636-0.679,0.992c-0.08,0.086-0.162,0.174-0.253,0.266l-0.203,0.206
		c-0.445,0.428-0.994,0.889-1.627,1.386c-0.251-0.326-0.49-0.635-0.718-0.928c-0.077-0.099-0.145-0.187-0.219-0.282l-0.225-0.291
		c-0.139-0.18-0.269-0.351-0.397-0.519c-0.035-0.046-0.07-0.093-0.104-0.137c-0.114-0.151-0.222-0.296-0.326-0.439
		c-0.041-0.055-0.08-0.11-0.119-0.164c-0.1-0.139-0.194-0.273-0.282-0.404c-0.029-0.042-0.055-0.083-0.083-0.124
		c-0.09-0.136-0.175-0.268-0.25-0.395c-0.015-0.025-0.028-0.049-0.042-0.074c-0.079-0.135-0.151-0.267-0.212-0.392
		c-0.004-0.009-0.007-0.017-0.011-0.026c-0.198-0.418-0.29-0.781-0.248-1.099c0.114-0.85,1.204-1.909,2.863-3.212
		C28.69,38.73,28.93,39.039,29.157,39.333z M40.555,47.886c-0.083-0.108-0.165-0.213-0.244-0.315
		c-0.665-0.857-1.193-1.541-1.427-2.032c-0.019-0.038-0.036-0.076-0.052-0.113c-0.029-0.071-0.052-0.139-0.065-0.2
		c-0.016-0.09-0.003-0.19,0.032-0.3c0.017-0.052,0.036-0.104,0.068-0.161c0.024-0.044,0.052-0.091,0.085-0.14
		c0.062-0.088,0.135-0.179,0.221-0.274c0.022-0.024,0.036-0.044,0.06-0.07c0.125-0.133,0.268-0.271,0.425-0.412
		c0.154-0.139,0.331-0.29,0.538-0.457c0.049,0.063,0.095,0.122,0.142,0.183c0.034,0.044,0.069,0.089,0.102,0.131
		c0.029,0.038,0.056,0.072,0.085,0.109c0.15,0.194,0.294,0.38,0.429,0.558c0.027,0.036,0.056,0.073,0.083,0.108
		c0.167,0.222,0.318,0.429,0.449,0.621c0.009,0.013,0.018,0.026,0.027,0.039c0.129,0.191,0.236,0.365,0.317,0.522
		c0.006,0.012,0.012,0.024,0.018,0.036c0.075,0.151,0.123,0.283,0.142,0.398c0.008,0.053,0.015,0.106,0.009,0.151
		C41.942,46.667,41.294,47.285,40.555,47.886z M49,40.799C49,43.115,47.129,45,44.828,45H43.72
		c-0.008-0.018-0.021-0.038-0.029-0.056c-0.068-0.146-0.146-0.295-0.235-0.447c-0.025-0.043-0.052-0.088-0.079-0.131
		c-0.087-0.14-0.181-0.285-0.284-0.433c-0.034-0.049-0.068-0.099-0.104-0.15c-0.111-0.155-0.23-0.318-0.356-0.485
		c-0.035-0.047-0.069-0.093-0.105-0.141c-0.112-0.147-0.233-0.304-0.355-0.462c-0.053-0.069-0.1-0.13-0.155-0.202
		c-0.259-0.332-0.541-0.696-0.845-1.098L40.569,40.6l-0.798,0.603c-0.975,0.736-1.799,1.412-2.343,2.119
		c-0.041,0.054-0.089,0.108-0.126,0.161c-0.049,0.07-0.087,0.141-0.13,0.212c-0.048,0.079-0.098,0.158-0.138,0.238
		c-0.038,0.076-0.066,0.154-0.097,0.231c-0.029,0.073-0.059,0.147-0.081,0.222c-0.025,0.084-0.042,0.171-0.058,0.258
		c-0.008,0.041-0.022,0.081-0.028,0.122c-0.005,0.036-0.001,0.07-0.004,0.105c-0.004,0.044-0.017,0.085-0.018,0.129h-3.411
		c0.069-0.141,0.126-0.281,0.174-0.42c0.008-0.025,0.013-0.05,0.021-0.074c0.056-0.174,0.094-0.346,0.12-0.517
		c0.002-0.017,0.009-0.032,0.011-0.049c0.001-0.011,0-0.022,0.001-0.033c0.023-0.188,0.03-0.376,0.019-0.564
		c-0.003-0.059-0.012-0.118-0.018-0.177c-0.012-0.108-0.03-0.216-0.052-0.324c-0.194-0.985-0.806-1.988-1.724-3.225
		c-0.119-0.162-0.243-0.326-0.371-0.495c-0.098-0.128-0.201-0.264-0.304-0.397c-0.108-0.141-0.22-0.285-0.333-0.431
		c-0.05-0.064-0.094-0.122-0.145-0.188c-0.401-0.518-0.841-1.084-1.313-1.709L28.821,35.6l-0.798,0.603
		c-0.338,0.255-0.657,0.501-0.958,0.739c-2.103,1.665-3.282,2.94-3.477,4.413c-0.006,0.048-0.001,0.095-0.005,0.143
		c-0.012,0.131-0.017,0.262-0.013,0.392c0.002,0.082,0.008,0.164,0.017,0.246c0.012,0.118,0.032,0.237,0.057,0.355
		c0.022,0.104,0.047,0.21,0.078,0.315c0.038,0.129,0.081,0.258,0.132,0.388c0.034,0.086,0.072,0.173,0.111,0.26
		c0.054,0.119,0.114,0.24,0.178,0.361c0.049,0.093,0.098,0.187,0.153,0.282c0.093,0.161,0.194,0.325,0.302,0.492
		c0.057,0.088,0.118,0.179,0.18,0.27c0.032,0.048,0.061,0.094,0.095,0.142h-4.9c-0.01-0.023-0.026-0.048-0.037-0.071
		c-0.065-0.139-0.139-0.28-0.224-0.424c-0.028-0.048-0.058-0.098-0.089-0.147c-0.084-0.136-0.176-0.276-0.275-0.419
		c-0.035-0.051-0.07-0.103-0.108-0.155c-0.118-0.166-0.246-0.34-0.382-0.519c-0.02-0.026-0.039-0.052-0.059-0.079
		c-0.166-0.218-0.341-0.445-0.53-0.688c-0.028-0.036-0.059-0.076-0.087-0.112c-0.237-0.305-0.486-0.626-0.759-0.988L16.821,40.6
		l-0.798,0.603c-0.975,0.737-1.801,1.413-2.345,2.12c-0.041,0.053-0.088,0.107-0.125,0.16c-0.049,0.07-0.088,0.142-0.131,0.214
		c-0.048,0.078-0.098,0.157-0.137,0.236c-0.038,0.076-0.066,0.154-0.097,0.232c-0.029,0.073-0.058,0.147-0.08,0.221
		c-0.025,0.084-0.042,0.171-0.058,0.258c-0.008,0.041-0.022,0.081-0.028,0.122c-0.005,0.036-0.001,0.07-0.004,0.105
		C13.013,44.914,13,44.956,12.999,45h-0.827C9.871,45,8,43.115,8,40.799V34v-5.664V28H7.977c-0.054-0.937-0.32-1.851-0.803-2.659
		L5.778,23h17.236h4.971h23.236l-1.396,2.342c-0.482,0.808-0.748,1.721-0.803,2.658H49v0.336V34V40.799z M54,32h-3v-2h3
		c0.552,0,1,0.448,1,1S54.552,32,54,32z"/>
	<path d="M31.5,11c1.93,0,3.5-1.57,3.5-3.5S33.43,4,31.5,4S28,5.57,28,7.5S29.57,11,31.5,11z M31.5,6C32.327,6,33,6.673,33,7.5
		S32.327,9,31.5,9S30,8.327,30,7.5S30.673,6,31.5,6z"/>
	<circle cx="43" cy="16" r="2"/>
	<path d="M15,16c0,0.425-0.131,0.831-0.38,1.174c-0.324,0.447-0.225,1.072,0.223,1.396c0.177,0.129,0.383,0.19,0.586,0.19
		c0.31,0,0.615-0.144,0.811-0.413C16.737,17.661,17,16.85,17,16v-0.036c0-0.553-0.447-0.982-1-0.982S15,15.447,15,16z"/>
	<path d="M13,14c0.42,0,0.82,0.128,1.158,0.369c0.177,0.125,0.379,0.186,0.58,0.186c0.313,0,0.62-0.146,0.815-0.419
		c0.32-0.45,0.216-1.074-0.233-1.396C14.641,12.256,13.838,12,13,12h-0.026c-0.553,0-0.986,0.447-0.986,1S12.447,14,13,14z"/>
	<path d="M10,17.009c0.553,0,1-0.456,1-1.009c0-0.42,0.129-0.823,0.374-1.166c0.321-0.449,0.218-1.073-0.231-1.395
		c-0.45-0.321-1.073-0.218-1.396,0.232C9.259,14.355,9,15.16,9,16v0.018C9,16.57,9.447,17.009,10,17.009z"/>
	<path d="M10.436,17.85c-0.322,0.448-0.222,1.073,0.227,1.396C11.347,19.739,12.155,20,13,20h0.009c0.553,0,0.995-0.447,0.995-1
		S13.553,18,13,18c-0.423,0-0.826-0.13-1.168-0.377C11.384,17.3,10.757,17.402,10.436,17.85z"/>
	<path d="M41,51H15c-0.553,0-1,0.447-1,1s0.447,1,1,1h26c0.553,0,1-0.447,1-1S41.553,51,41,51z"/>
	<path d="M46,26H20.074c-0.553,0-1,0.447-1,1s0.447,1,1,1H46c0.553,0,1-0.447,1-1S46.553,26,46,26z"/>
	<path d="M15.827,26H11c-0.553,0-1,0.447-1,1s0.447,1,1,1h4.827c0.553,0,1-0.447,1-1S16.38,26,15.827,26z"/>
</g>
<g>
</g>
<g>
</g>
<g>
</g>
<g>
</g>
<g>
</g>
<g>
</g>
<g>
</g>
<g>
</g>
<g>
</g>
<g>
</g>
<g>
</g>
<g>
</g>
<g>
</g>
<g>
</g>
<g>
</g>
</svg>
