<?xml version="1.0" encoding="utf-8"?>
<!-- Generator: Adobe Illustrator 16.0.4, SVG Export Plug-In . SVG Version: 6.00 Build 0)  -->
<!DOCTYPE svg PUBLIC "-//W3C//DTD SVG 1.1//EN" "http://www.w3.org/Graphics/SVG/1.1/DTD/svg11.dtd">
<svg version="1.1" id="Capa_1" xmlns="http://www.w3.org/2000/svg" xmlns:xlink="http://www.w3.org/1999/xlink" x="0px" y="0px"
	 width="792px" height="612px" viewBox="0 0 792 612" enable-background="new 0 0 792 612" xml:space="preserve">
<g>
	<path fill="#FFFFFF" d="M669.789,300.632h-31.963c0.547-6.185,2.383-12.197,5.572-17.544l17.522-29.354
		c3.436-5.766,3.511-12.981,0.193-18.822c-3.308-5.819-9.513-9.438-16.191-9.438H400.928c0.258-1.771,0.44-3.554,0.44-5.368
		c0-20.722-16.856-37.579-37.579-37.579s-37.579,16.857-37.579,37.579c0,1.814,0.183,3.597,0.44,5.368H147.077
		c-6.678,0-12.884,3.618-16.191,9.438c-3.328,5.841-3.253,13.056,0.204,18.833l17.512,29.333c3.189,5.358,5.036,11.371,5.573,17.555
		H122.21c-17.759,0-32.21,14.451-32.21,32.21s14.452,32.211,32.21,32.211h32.21v73c0,36.709,29.73,66.579,66.268,66.579h16.062
		c3.597,5.69,8.364,11.886,14.119,19.294c2.781,3.575,5.819,7.494,9.083,11.811l6.474,8.568l8.568-6.475
		c16.964-12.82,27.411-22.397,31.019-33.198h67.126c0.537,0.687,1.009,1.31,1.557,2.019c4.305,5.572,9.04,11.639,14.097,18.349
		l6.475,8.568l8.568-6.475c10.93-8.257,20.035-15.579,27.271-22.461h60.642c3.597,5.69,8.364,11.886,14.108,19.294
		c2.781,3.575,5.819,7.483,9.083,11.811l6.475,8.568l8.568-6.475c16.975-12.82,27.422-22.397,31.029-33.198h10.318
		c36.516,0,66.246-29.87,66.246-66.579v-73h32.21c17.759,0,32.211-14.452,32.211-32.211S687.548,300.632,669.789,300.632z
		 M347.684,220.105c0-8.879,7.226-16.105,16.105-16.105s16.105,7.226,16.105,16.105c0,2.019-0.397,3.822-0.966,5.368H348.65
		C348.082,223.928,347.684,222.124,347.684,220.105z M122.21,343.579c-5.927,0-10.737-4.811-10.737-10.737
		s4.81-10.736,10.737-10.736h32.21v21.474H122.21z M270.454,514.145c-0.902-1.16-1.771-2.287-2.62-3.382
		c-7.097-9.148-12.734-16.449-15.279-21.721c-0.226-0.462-0.44-0.913-0.633-1.364c-0.269-0.665-0.473-1.288-0.612-1.868
		c-0.226-1.052-0.14-2.212,0.29-3.521c0.183-0.537,0.376-1.073,0.708-1.653c0.258-0.483,0.559-0.998,0.935-1.535
		c0.655-0.935,1.438-1.9,2.351-2.921c0.236-0.269,0.397-0.493,0.655-0.772c1.342-1.418,2.867-2.899,4.542-4.402
		c1.664-1.492,3.564-3.124,5.787-4.929c0.902,1.16,1.771,2.287,2.62,3.372c4.456,5.755,8.45,10.897,11.414,15.268
		c0.011,0.011,0.021,0.032,0.032,0.043c1.438,2.115,2.609,4.037,3.5,5.766c0.054,0.097,0.097,0.204,0.15,0.301
		c0.816,1.632,1.331,3.06,1.535,4.306c0.086,0.568,0.161,1.127,0.097,1.621C285.346,501.057,278.378,507.691,270.454,514.145z
		 M403.054,422.312c0.645,0.826,1.203,1.557,1.825,2.352c12.09,15.622,19.659,25.843,23.074,33.681
		c0.107,0.258,0.236,0.516,0.333,0.763c0.429,1.052,0.794,2.072,1.062,3.049c0.043,0.129,0.064,0.258,0.097,0.387
		c0.763,2.878,0.816,5.465,0.269,7.978c-0.129,0.494-0.215,0.988-0.397,1.492c-0.086,0.269-0.204,0.548-0.301,0.816
		c-1.353,3.274-3.854,6.829-7.29,10.651c-0.859,0.923-1.739,1.868-2.717,2.855l-2.18,2.212c-4.777,4.596-10.672,9.545-17.469,14.881
		c-2.694-3.5-5.261-6.817-7.709-9.964c-0.827-1.062-1.557-2.008-2.351-3.027l-2.416-3.124c-1.492-1.933-2.888-3.77-4.262-5.573
		c-0.376-0.493-0.752-0.998-1.117-1.471c-1.224-1.621-2.384-3.178-3.5-4.713c-0.44-0.591-0.859-1.182-1.277-1.762
		c-1.074-1.492-2.083-2.931-3.028-4.337c-0.312-0.451-0.591-0.892-0.891-1.332c-0.966-1.46-1.879-2.877-2.685-4.241
		c-0.161-0.268-0.3-0.525-0.451-0.794c-0.848-1.449-1.622-2.867-2.276-4.209c-0.043-0.097-0.075-0.183-0.118-0.279
		c-2.125-4.488-3.114-8.386-2.663-11.8c1.224-9.126,12.927-20.496,30.74-34.486C398.04,415.838,400.617,419.155,403.054,422.312z
		 M525.433,514.145c-0.892-1.16-1.771-2.287-2.62-3.382c-7.14-9.202-12.809-16.546-15.321-21.817
		c-0.204-0.408-0.387-0.816-0.558-1.214c-0.312-0.762-0.559-1.492-0.698-2.147c-0.172-0.966-0.032-2.039,0.344-3.221
		c0.183-0.559,0.386-1.116,0.729-1.729c0.258-0.473,0.559-0.977,0.913-1.503c0.666-0.945,1.449-1.922,2.373-2.942
		c0.236-0.258,0.386-0.472,0.644-0.751c1.343-1.429,2.878-2.91,4.563-4.424c1.653-1.492,3.554-3.113,5.776-4.907
		c0.526,0.677,1.021,1.311,1.524,1.965c0.365,0.473,0.741,0.956,1.096,1.407c0.312,0.407,0.601,0.772,0.912,1.17
		c1.61,2.083,3.157,4.08,4.606,5.991c0.29,0.387,0.602,0.784,0.891,1.16c1.793,2.383,3.415,4.605,4.821,6.667
		c0.097,0.14,0.193,0.279,0.29,0.419c1.385,2.051,2.534,3.919,3.403,5.604c0.064,0.129,0.129,0.258,0.193,0.387
		c0.806,1.621,1.32,3.038,1.524,4.273c0.086,0.568,0.161,1.138,0.097,1.621C540.324,501.057,533.367,507.691,525.433,514.145z
		 M616.105,438.053c0,24.866-20.089,45.105-44.794,45.105h-11.896c-0.086-0.193-0.226-0.408-0.312-0.602
		c-0.73-1.567-1.567-3.167-2.523-4.8c-0.269-0.461-0.559-0.944-0.848-1.406c-0.935-1.503-1.943-3.06-3.05-4.648
		c-0.365-0.526-0.729-1.063-1.116-1.611c-1.192-1.664-2.47-3.414-3.822-5.207c-0.376-0.505-0.741-0.998-1.128-1.514
		c-1.202-1.578-2.501-3.265-3.812-4.961c-0.568-0.74-1.073-1.396-1.664-2.169c-2.781-3.564-5.809-7.473-9.072-11.789l-6.485-8.535
		l-8.568,6.474c-10.468,7.902-19.315,15.161-25.156,22.752c-0.44,0.58-0.955,1.159-1.353,1.729
		c-0.526,0.752-0.935,1.514-1.396,2.276c-0.516,0.848-1.053,1.696-1.482,2.555c-0.407,0.816-0.708,1.654-1.041,2.48
		c-0.312,0.784-0.634,1.578-0.87,2.384c-0.269,0.902-0.451,1.836-0.622,2.771c-0.086,0.439-0.236,0.869-0.301,1.31
		c-0.054,0.387-0.011,0.752-0.043,1.127c-0.043,0.473-0.183,0.913-0.193,1.386h-36.624c0.741-1.515,1.354-3.018,1.869-4.51
		c0.086-0.269,0.139-0.537,0.225-0.795c0.602-1.868,1.01-3.715,1.289-5.551c0.021-0.183,0.097-0.344,0.118-0.525
		c0.011-0.118,0-0.236,0.011-0.354c0.247-2.019,0.322-4.037,0.204-6.056c-0.032-0.634-0.129-1.268-0.193-1.9
		c-0.129-1.16-0.322-2.319-0.559-3.479c-2.083-10.576-8.654-21.346-18.511-34.627c-1.277-1.739-2.608-3.5-3.983-5.314
		c-1.052-1.374-2.157-2.835-3.264-4.263c-1.159-1.514-2.362-3.06-3.575-4.628c-0.537-0.687-1.01-1.31-1.557-2.018
		c-4.306-5.562-9.03-11.64-14.098-18.35l-6.464-8.558l-8.568,6.475c-3.629,2.737-7.054,5.379-10.286,7.935
		c-22.58,17.877-35.238,31.566-37.332,47.382c-0.064,0.515-0.011,1.02-0.054,1.535c-0.129,1.406-0.183,2.812-0.14,4.209
		c0.021,0.88,0.086,1.761,0.183,2.641c0.129,1.268,0.343,2.545,0.612,3.812c0.236,1.117,0.505,2.255,0.837,3.383
		c0.408,1.385,0.87,2.77,1.417,4.166c0.365,0.923,0.773,1.857,1.192,2.791c0.58,1.277,1.224,2.577,1.911,3.876
		c0.526,0.999,1.052,2.008,1.643,3.028c0.999,1.729,2.083,3.489,3.243,5.282c0.612,0.944,1.267,1.922,1.933,2.898
		c0.343,0.516,0.655,1.01,1.02,1.525h-52.611c-0.107-0.247-0.279-0.516-0.397-0.763c-0.698-1.492-1.493-3.006-2.405-4.553
		c-0.301-0.515-0.623-1.052-0.956-1.578c-0.902-1.46-1.89-2.963-2.953-4.499c-0.376-0.547-0.751-1.105-1.16-1.664
		c-1.267-1.782-2.641-3.65-4.101-5.572c-0.215-0.279-0.419-0.559-0.634-0.848c-1.782-2.341-3.661-4.778-5.69-7.388
		c-0.301-0.386-0.634-0.815-0.934-1.202c-2.544-3.274-5.218-6.722-8.149-10.608l-6.463-8.578l-8.568,6.474
		c-10.469,7.913-19.337,15.172-25.178,22.763c-0.44,0.569-0.945,1.148-1.342,1.718c-0.526,0.752-0.945,1.524-1.407,2.298
		c-0.515,0.837-1.052,1.686-1.471,2.533c-0.408,0.816-0.709,1.654-1.042,2.491c-0.312,0.784-0.623,1.578-0.859,2.373
		c-0.268,0.902-0.451,1.836-0.623,2.771c-0.086,0.439-0.236,0.869-0.301,1.31c-0.054,0.387-0.011,0.752-0.043,1.127
		c-0.053,0.462-0.193,0.913-0.204,1.386h-8.879c-24.706,0-44.794-20.239-44.794-45.105v-73v-60.813v-3.607h-0.247
		c-0.58-10.061-3.436-19.874-8.622-28.549l-14.988-25.135h185.06h53.373h249.481l-14.989,25.146
		c-5.175,8.675-8.031,18.478-8.621,28.539h-0.236v3.607v60.813V438.053z M669.789,343.579h-32.21v-21.474h32.21
		c5.927,0,10.737,4.81,10.737,10.736S675.716,343.579,669.789,343.579z"/>
	<path fill="#FFFFFF" d="M428.211,118.105c20.722,0,37.578-16.857,37.578-37.579s-16.856-37.579-37.578-37.579
		c-20.723,0-37.579,16.857-37.579,37.579S407.488,118.105,428.211,118.105z M428.211,64.421c8.879,0,16.104,7.226,16.104,16.105
		s-7.226,16.105-16.104,16.105c-8.88,0-16.105-7.226-16.105-16.105S419.331,64.421,428.211,64.421z"/>
	<circle fill="#FFFFFF" cx="551.685" cy="171.79" r="21.474"/>
	<path fill="#FFFFFF" d="M251.053,171.79c0,4.563-1.407,8.922-4.08,12.605c-3.479,4.799-2.416,11.51,2.395,14.989
		c1.9,1.385,4.112,2.04,6.292,2.04c3.329,0,6.603-1.546,8.708-4.435c5.336-7.365,8.16-16.073,8.16-25.199v-0.387
		c0-5.938-4.799-10.543-10.737-10.543S251.053,165.852,251.053,171.79z"/>
	<path fill="#FFFFFF" d="M229.579,150.316c4.509,0,8.804,1.374,12.433,3.962c1.9,1.342,4.069,1.997,6.228,1.997
		c3.36,0,6.657-1.568,8.75-4.499c3.436-4.832,2.319-11.531-2.502-14.988c-7.29-5.197-15.912-7.945-24.909-7.945H229.3
		c-5.938,0-10.586,4.799-10.586,10.737S223.642,150.316,229.579,150.316z"/>
	<path fill="#FFFFFF" d="M197.369,182.623c5.937,0,10.737-4.896,10.737-10.833c0-4.51,1.385-8.836,4.016-12.519
		c3.446-4.821,2.34-11.521-2.48-14.978c-4.832-3.447-11.521-2.341-14.989,2.491c-5.239,7.344-8.021,15.987-8.021,25.006v0.193
		C186.631,177.91,191.431,182.623,197.369,182.623z"/>
	<path fill="#FFFFFF" d="M202.05,191.653c-3.458,4.81-2.384,11.521,2.437,14.988c7.344,5.293,16.02,8.096,25.092,8.096h0.097
		c5.938,0,10.683-4.799,10.683-10.737s-4.842-10.737-10.78-10.737c-4.542,0-8.869-1.396-12.541-4.048
		C212.228,185.748,205.496,186.843,202.05,191.653z"/>
	<path fill="#FFFFFF" d="M530.211,547.579H251.053c-5.938,0-10.737,4.799-10.737,10.736s4.799,10.737,10.737,10.737h279.158
		c5.938,0,10.736-4.8,10.736-10.737S536.148,547.579,530.211,547.579z"/>
	<path fill="#FFFFFF" d="M583.895,279.158H305.531c-5.938,0-10.737,4.799-10.737,10.737s4.799,10.737,10.737,10.737h278.363
		c5.938,0,10.737-4.8,10.737-10.737S589.832,279.158,583.895,279.158z"/>
	<path fill="#FFFFFF" d="M259.932,279.158h-51.827c-5.938,0-10.737,4.799-10.737,10.737s4.799,10.737,10.737,10.737h51.827
		c5.938,0,10.737-4.8,10.737-10.737S265.87,279.158,259.932,279.158z"/>
</g>
</svg>
